<svg xmlns="http://www.w3.org/2000/svg" viewBox="0 0 50 50" fill="none">
  <path
    fill="#1A1A1A"
    d="M25.07 1.492a24.831 24.831 0 0 0-4.307.373 24.531 24.531 0 0 0-8.307 3.08A24.894 24.894 0 0 0 10.05 6.58C4.385 10.954.746 17.74.746 25.364A23.44 23.44 0 0 0 3.97 37.247a23.988 23.988 0 0 0 6.085 6.898c.154.118.307.236.464.348a23.989 23.989 0 0 0 2.961 1.86 24.609 24.609 0 0 0 11.595 2.88c13.433 0 24.324-10.688 24.324-23.872 0-13.185-10.894-23.87-24.328-23.87Zm0 20.797c1.769 0 3.208 1.381 3.208 3.078 0 1.697-1.44 3.078-3.207 3.078v-6.156Zm0 10.681c4.279 0 7.752-3.406 7.752-7.606 0-4.2-3.47-7.607-7.752-7.607v-3.712c6.402 0 11.611 5.077 11.611 11.322 0 6.245-5.209 11.322-11.61 11.322V32.97Zm0 11.74v-3.492c8.919 0 16.152-7.097 16.152-15.851 0-8.755-7.23-15.85-16.152-15.85V6.02c10.908 0 19.784 8.678 19.784 19.343 0 10.668-8.873 19.346-19.784 19.346Z"
  />
</svg>
