<svg width="131" height="101" viewBox="0 0 131 101" fill="none" xmlns="http://www.w3.org/2000/svg">

<g id="Logo">
<g id="Content">

<g id="Row">
<g id="Logo_2">

<g id="type=logo vertically, size=L">
<g id="Stacked">
<g id="Vector">
<path d="M5.92031 96.0438V81.684H9.48887C10.7209 81.684 11.7511 81.8648 12.5795 82.2264C13.4291 82.5668 14.1089 83.0667 14.6187 83.7262C15.1285 84.3857 15.4896 85.1835 15.702 86.1195C15.9356 87.0343 16.0525 88.0661 16.0525 89.2149C16.0525 90.47 15.8931 91.5337 15.5745 92.406C15.2559 93.2782 14.8311 93.9909 14.3 94.544C13.769 95.0758 13.1636 95.4588 12.4839 95.6928C11.8042 95.9268 11.1032 96.0438 10.381 96.0438H5.92031ZM0.917969 77.4717V100.256H10.7315C12.4733 100.256 13.9814 99.9688 15.2559 99.3944C16.5516 98.7987 17.6243 97.9903 18.474 96.9692C19.3449 95.9481 19.9927 94.7355 20.4176 93.3314C20.8424 91.9273 21.0548 90.3956 21.0548 88.7362C21.0548 86.8428 20.7893 85.1941 20.2582 83.7901C19.7485 82.386 19.0262 81.2159 18.0916 80.2799C17.1782 79.3438 16.0843 78.6418 14.8098 78.1738C13.5566 77.7057 12.1971 77.4717 10.7315 77.4717H0.917969Z" fill="#1A1A1A"/>
<path d="M30.2697 91.4486L33.2328 83.088H33.2966L36.1641 91.4486H30.2697ZM30.7476 77.4717L22.1448 100.256H27.179L28.9633 95.1822H37.4705L39.191 100.256H44.3846L35.8774 77.4717H30.7476Z" fill="#1A1A1A"/>
<path d="M49.876 91.3848V100.256H54.8784V91.5125L63.3218 77.4717H57.746L52.4569 86.4706L47.1359 77.4717H41.5282L49.876 91.3848Z" fill="#1A1A1A"/>
<path d="M69.2479 88.9596C69.2479 87.9597 69.3541 86.9918 69.5665 86.0557C69.8002 85.1197 70.1613 84.29 70.6499 83.5667C71.1384 82.8221 71.7756 82.2371 72.5616 81.8116C73.3475 81.3648 74.3034 81.1415 75.4292 81.1415C76.555 81.1415 77.5108 81.3648 78.2968 81.8116C79.0827 82.2371 79.7199 82.8221 80.2085 83.5667C80.697 84.29 81.0475 85.1197 81.2599 86.0557C81.4936 86.9918 81.6104 87.9597 81.6104 88.9596C81.6104 89.9169 81.4936 90.853 81.2599 91.7677C81.0475 92.6612 80.697 93.4697 80.2085 94.193C79.7199 94.9163 79.0827 95.5013 78.2968 95.9481C77.5108 96.3735 76.555 96.5863 75.4292 96.5863C74.3034 96.5863 73.3475 96.3735 72.5616 95.9481C71.7756 95.5013 71.1384 94.9163 70.6499 94.193C70.1613 93.4697 69.8002 92.6612 69.5665 91.7677C69.3541 90.853 69.2479 89.9169 69.2479 88.9596ZM64.2456 88.9596C64.2456 90.6189 64.5005 92.172 65.0103 93.6186C65.5201 95.0439 66.2529 96.2884 67.2088 97.3521C68.1646 98.4158 69.3329 99.2561 70.7136 99.8731C72.1155 100.469 73.6874 100.767 75.4292 100.767C77.1922 100.767 78.7641 100.469 80.1448 99.8731C81.5254 99.2561 82.6937 98.4158 83.6496 97.3521C84.6054 96.2884 85.3383 95.0439 85.8481 93.6186C86.3579 92.172 86.6128 90.6189 86.6128 88.9596C86.6128 87.2577 86.3579 85.6834 85.8481 84.2368C85.3383 82.7689 84.6054 81.4925 83.6496 80.4075C82.6937 79.3226 81.5254 78.4716 80.1448 77.8547C78.7641 77.2377 77.1922 76.9293 75.4292 76.9293C73.6874 76.9293 72.1155 77.2377 70.7136 77.8547C69.3329 78.4716 68.1646 79.3226 67.2088 80.4075C66.2529 81.4925 65.5201 82.7689 65.0103 84.2368C64.5005 85.6834 64.2456 87.2577 64.2456 88.9596Z" fill="#1A1A1A"/>
<path d="M90.0322 77.4717V100.256H94.7159V85.0027H94.7797L104.243 100.256H109.245V77.4717H104.561V92.757H104.498L95.0027 77.4717H90.0322Z" fill="#1A1A1A"/>
<path d="M113.649 77.4717V100.256H130.918V96.0438H118.651V90.4594H129.675V86.5663H118.651V81.684H130.663V77.4717H113.649Z" fill="#1A1A1A"/>
<path d="M66.056 0.766602C64.9583 0.766602 63.874 0.834195 62.8132 0.969376C62.3881 1.02345 61.9665 1.08765 61.5482 1.162C59.4599 1.53375 57.4586 2.15558 55.5779 3.00046C55.0157 3.25392 54.4601 3.52766 53.9213 3.8183C53.5599 4.01431 53.2052 4.21708 52.8538 4.4266C52.1543 4.84904 51.475 5.30528 50.8224 5.78855C50.6584 5.91021 50.4978 6.03187 50.3372 6.15691C44.407 10.7936 40.5986 17.9852 40.5986 26.0622C40.5986 30.4285 41.713 34.5346 43.6708 38.1203C43.7678 38.2994 43.8682 38.4785 43.972 38.6543C45.1968 40.7732 46.7229 42.6995 48.4932 44.3758C48.6404 44.5143 48.791 44.6529 48.9416 44.7881C49.3934 45.197 49.8619 45.589 50.3405 45.9641C50.5011 46.0892 50.6618 46.2142 50.8257 46.3325C51.4783 46.8191 52.1577 47.272 52.8571 47.6944C53.2085 47.9073 53.5632 48.1101 53.9247 48.3027C54.2861 48.4988 54.6509 48.6846 55.0223 48.8604C58.3622 50.4589 62.1037 51.3544 66.0593 51.3544C80.1183 51.3544 91.5167 40.0297 91.5167 26.0588C91.5167 12.0879 80.1149 0.766602 66.056 0.766602ZM66.056 22.8044C67.9066 22.8044 69.4126 24.2677 69.4126 26.0656C69.4126 27.8635 67.9066 29.3268 66.056 29.3268V22.8044ZM66.056 34.1223C70.5337 34.1223 74.1681 30.513 74.1681 26.0622C74.1681 21.6114 70.537 18.0021 66.056 18.0021V14.0683C72.7558 14.0683 78.2074 19.4485 78.2074 26.0656C78.2074 32.6827 72.7558 38.0628 66.056 38.0628V34.1223ZM66.056 46.5623V42.8617C75.3896 42.8617 82.9595 35.3423 82.9595 26.0656C82.9595 16.7888 75.3929 9.26944 66.056 9.26944V5.5655C77.4711 5.5655 86.7612 14.7611 86.7612 26.0622C86.7612 37.3667 77.4745 46.5623 66.056 46.5623Z" fill="#1A1A1A"/>
</g>
</g>
</g>
</g>
</g>
</g>
</g>
</svg>
