<svg xmlns="http://www.w3.org/2000/svg" width="276" height="50" fill="none"><path fill="#1A1A1A" d="M25.07 1.492a24.831 24.831 0 0 0-4.307.373 24.531 24.531 0 0 0-8.307 3.08A24.894 24.894 0 0 0 10.05 6.58C4.385 10.954.746 17.74.746 25.364A23.44 23.44 0 0 0 3.97 37.247a23.988 23.988 0 0 0 6.085 6.898c.154.118.307.236.464.348a23.989 23.989 0 0 0 2.961 1.86 24.609 24.609 0 0 0 11.595 2.88c13.433 0 24.324-10.688 24.324-23.872 0-13.185-10.894-23.87-24.328-23.87Zm0 20.797c1.769 0 3.208 1.381 3.208 3.078 0 1.697-1.44 3.078-3.207 3.078v-6.156Zm0 10.681c4.279 0 7.752-3.406 7.752-7.606 0-4.2-3.47-7.607-7.752-7.607v-3.712c6.402 0 11.611 5.077 11.611 11.322 0 6.245-5.209 11.322-11.61 11.322V32.97Zm0 11.74v-3.492c8.919 0 16.152-7.097 16.152-15.851 0-8.755-7.23-15.85-16.152-15.85V6.02c10.908 0 19.784 8.678 19.784 19.343 0 10.668-8.873 19.346-19.784 19.346Zm56.688-8.18V14.593h5.52c1.905 0 3.498.277 4.78.829 1.313.52 2.365 1.284 3.153 2.29.788 1.008 1.347 2.227 1.675 3.657.362 1.397.543 2.973.543 4.728 0 1.917-.247 3.542-.74 4.874-.492 1.333-1.15 2.421-1.97 3.266a7.296 7.296 0 0 1-2.81 1.755 10.033 10.033 0 0 1-3.252.536h-6.899ZM74.022 8.16v34.803h15.177c2.694 0 5.027-.438 6.998-1.316 2.004-.91 3.663-2.145 4.977-3.704 1.347-1.56 2.349-3.412 3.006-5.557.657-2.145.985-4.485.985-7.02 0-2.891-.411-5.41-1.232-7.555-.788-2.144-1.905-3.932-3.351-5.361-1.412-1.43-3.104-2.503-5.075-3.217-1.939-.715-4.041-1.073-6.308-1.073H74.022Zm45.395 21.35 4.582-12.77h.099l4.435 12.77h-9.116Zm.739-21.35-13.305 34.803h7.786l2.759-7.75h13.157l2.661 7.75h8.032L128.089 8.16h-7.933Zm29.583 21.253v13.55h7.737V29.608L170.534 8.16h-8.623l-8.18 13.746-8.229-13.746h-8.673l12.91 21.253Zm29.961-3.705c0-1.527.164-3.006.492-4.436.362-1.43.92-2.697 1.676-3.802a8.048 8.048 0 0 1 2.956-2.68c1.216-.683 2.694-1.024 4.435-1.024 1.742 0 3.22.34 4.435 1.023a8.05 8.05 0 0 1 2.957 2.681c.756 1.105 1.298 2.372 1.626 3.802.362 1.43.542 2.909.542 4.436 0 1.462-.18 2.892-.542 4.29a11.08 11.08 0 0 1-1.626 3.704 8.655 8.655 0 0 1-2.957 2.68c-1.215.65-2.693.976-4.435.976-1.741 0-3.219-.325-4.435-.975a8.651 8.651 0 0 1-2.956-2.681 11.908 11.908 0 0 1-1.676-3.705 18.707 18.707 0 0 1-.492-4.289Zm-7.737 0c0 2.535.394 4.907 1.183 7.117.788 2.177 1.922 4.078 3.4 5.703 1.478 1.624 3.285 2.908 5.42 3.85 2.169.91 4.6 1.365 7.293 1.365 2.727 0 5.158-.455 7.293-1.365 2.136-.942 3.943-2.226 5.421-3.85 1.478-1.625 2.612-3.526 3.4-5.703.789-2.21 1.183-4.582 1.183-7.117 0-2.6-.394-5.004-1.183-7.214-.788-2.242-1.922-4.192-3.4-5.85-1.478-1.657-3.285-2.957-5.421-3.899-2.135-.942-4.566-1.414-7.293-1.414-2.693 0-5.124.472-7.293 1.414-2.135.942-3.942 2.242-5.42 3.9-1.478 1.657-2.612 3.607-3.4 5.849-.789 2.21-1.183 4.614-1.183 7.214ZM211.844 8.16v34.803h7.244v-23.3h.099l14.635 23.3h7.736V8.16h-7.243v23.35h-.099L219.531 8.16h-7.687Zm36.525 0v34.803h26.708V36.53h-18.971V28h17.049v-5.947h-17.049v-7.458h18.577V8.16h-26.314Z"/></svg>