<svg width="131" height="26" viewBox="0 0 131 26" fill="none" xmlns="http://www.w3.org/2000/svg">

<g id="Logo">
<g id="Content">

<g id="Row">
<g id="Logo_2">

<g id="type=wordmark, size=L">
<g id="Wordmark/black">
<g id="Vector">
<path d="M6.02344 19.9745V5.81639H9.58579C10.8156 5.81639 11.8441 5.99468 12.671 6.35125C13.5192 6.68685 14.1978 7.17976 14.7067 7.82999C15.2156 8.48021 15.5761 9.26677 15.7881 10.1897C16.0213 11.0916 16.138 12.1089 16.138 13.2415C16.138 14.4791 15.9789 15.5278 15.6609 16.3878C15.3428 17.2478 14.9187 17.9504 14.3886 18.4958C13.8585 19.0201 13.2542 19.3977 12.5756 19.6284C11.8971 19.8591 11.1973 19.9745 10.4764 19.9745H6.02344ZM1.02979 1.66334V24.1276H10.8263C12.565 24.1276 14.0705 23.8444 15.3428 23.2781C16.6363 22.6908 17.7071 21.8937 18.5553 20.8869C19.4247 19.8801 20.0714 18.6845 20.4955 17.3002C20.9196 15.9158 21.1316 14.4056 21.1316 12.7696C21.1316 10.9028 20.8666 9.27726 20.3365 7.89291C19.8275 6.50856 19.1066 5.35494 18.1736 4.43204C17.2618 3.50914 16.1698 2.81696 14.8975 2.35551C13.6464 1.89406 12.2894 1.66334 10.8263 1.66334H1.02979Z" fill="#1A1A1A"/>
<path d="M30.3305 15.4439L33.2885 7.20074H33.3521L36.2147 15.4439H30.3305ZM30.8076 1.66334L22.2198 24.1276H27.2452L29.0264 19.125H37.5188L39.2363 24.1276H44.4208L35.9284 1.66334H30.8076Z" fill="#1A1A1A"/>
<path d="M49.9028 15.381V24.1276H54.8964V15.5068L63.3252 1.66334H57.759L52.4791 10.5358L47.1674 1.66334H41.5694L49.9028 15.381Z" fill="#1A1A1A"/>
<path d="M69.241 12.9898C69.241 12.004 69.347 11.0496 69.5591 10.1267C69.7923 9.20385 70.1528 8.38582 70.6405 7.67267C71.1282 6.93855 71.7643 6.36174 72.5489 5.94224C73.3335 5.50176 74.2877 5.28152 75.4115 5.28152C76.5353 5.28152 77.4895 5.50176 78.2741 5.94224C79.0587 6.36174 79.6948 6.93855 80.1825 7.67267C80.6702 8.38582 81.0201 9.20385 81.2321 10.1267C81.4654 11.0496 81.582 12.004 81.582 12.9898C81.582 13.9337 81.4654 14.8566 81.2321 15.7585C81.0201 16.6395 80.6702 17.4365 80.1825 18.1497C79.6948 18.8628 79.0587 19.4396 78.2741 19.8801C77.4895 20.2996 76.5353 20.5094 75.4115 20.5094C74.2877 20.5094 73.3335 20.2996 72.5489 19.8801C71.7643 19.4396 71.1282 18.8628 70.6405 18.1497C70.1528 17.4365 69.7923 16.6395 69.5591 15.7585C69.347 14.8566 69.241 13.9337 69.241 12.9898ZM64.2473 12.9898C64.2473 14.6259 64.5018 16.1571 65.0107 17.5834C65.5196 18.9887 66.2512 20.2157 67.2054 21.2645C68.1596 22.3132 69.3258 23.1417 70.7041 23.75C72.1036 24.3373 73.6727 24.6309 75.4115 24.6309C77.1715 24.6309 78.7406 24.3373 80.1189 23.75C81.4972 23.1417 82.6634 22.3132 83.6176 21.2645C84.5718 20.2157 85.3034 18.9887 85.8123 17.5834C86.3212 16.1571 86.5756 14.6259 86.5756 12.9898C86.5756 11.3118 86.3212 9.75968 85.8123 8.33338C85.3034 6.88611 84.5718 5.62761 83.6176 4.55789C82.6634 3.48816 81.4972 2.64916 80.1189 2.04089C78.7406 1.43262 77.1715 1.12848 75.4115 1.12848C73.6727 1.12848 72.1036 1.43262 70.7041 2.04089C69.3258 2.64916 68.1596 3.48816 67.2054 4.55789C66.2512 5.62761 65.5196 6.88611 65.0107 8.33338C64.5018 9.75968 64.2473 11.3118 64.2473 12.9898Z" fill="#1A1A1A"/>
<path d="M89.9891 1.66334V24.1276H94.6647V9.08849H94.7284L104.175 24.1276H109.169V1.66334H104.493V16.7339H104.429L94.951 1.66334H89.9891Z" fill="#1A1A1A"/>
<path d="M113.565 1.66334V24.1276H130.804V19.9745H118.558V14.4686H129.563V10.6301H118.558V5.81639H130.549V1.66334H113.565Z" fill="#1A1A1A"/>
</g>
</g>
</g>
</g>
</g>
</g>
</g>
</svg>
