<svg width="48" height="48" viewBox="0 0 48 48" fill="none" xmlns="http://www.w3.org/2000/svg">
<path d="M23.9599 0.436279C22.9268 0.436279 21.9062 0.49867 20.9078 0.623452C20.5078 0.673365 20.1109 0.732636 19.7172 0.801266C17.7518 1.14442 15.8683 1.71841 14.0981 2.4983C13.569 2.73226 13.0461 2.98495 12.539 3.25323C12.1988 3.43416 11.865 3.62133 11.5342 3.81475C10.876 4.20469 10.2366 4.62583 9.62237 5.07192C9.46804 5.18423 9.31685 5.29653 9.16566 5.41195C3.58437 9.69197 0 16.3304 0 23.7861C0 27.8165 1.04885 31.6068 2.89144 34.9166C2.98278 35.0819 3.07727 35.2473 3.17491 35.4095C4.3277 37.3655 5.76397 39.1436 7.43017 40.6909C7.56876 40.8188 7.71049 40.9467 7.85223 41.0715C8.27744 41.4489 8.7184 41.8108 9.16881 42.1571C9.32 42.2725 9.47118 42.3879 9.62552 42.4971C10.2397 42.9463 10.8791 43.3643 11.5374 43.7543C11.8681 43.9508 12.202 44.138 12.5422 44.3158C12.8823 44.4967 13.2256 44.6683 13.5753 44.8305C16.7187 46.3061 20.24 47.1327 23.963 47.1327C37.195 47.1327 47.9229 36.6792 47.9229 23.783C47.9229 10.8868 37.1918 0.436279 23.9599 0.436279ZM23.9599 20.7788C25.7016 20.7788 27.119 22.1296 27.119 23.7892C27.119 25.4488 25.7016 26.7996 23.9599 26.7996V20.7788ZM23.9599 31.2262C28.1742 31.2262 31.5948 27.8945 31.5948 23.7861C31.5948 19.6776 28.1773 16.346 23.9599 16.346V12.7148C30.2656 12.7148 35.3965 17.6811 35.3965 23.7892C35.3965 29.8973 30.2656 34.8636 23.9599 34.8636V31.2262ZM23.9599 42.7092V39.2933C32.7444 39.2933 39.8691 32.3523 39.8691 23.7892C39.8691 15.226 32.7476 8.28505 23.9599 8.28505V4.86603C34.7035 4.86603 43.4471 13.3543 43.4471 23.7861C43.4471 34.221 34.7067 42.7092 23.9599 42.7092Z" fill="#1A1A1A"/>
</svg>
